# xmcd CD database file
#
# Track frame offsets:
#	150
#	13164
#	26433
#	38217
#	52346
#	73516
#	93461
#	107197
#	129186
#	143687
#	182161
#	202857
#	222917
#	238538
#	260572
#	277504
#	295353
#	312850
#
# Disc length: 4340 seconds
#
# Revision: 0
# Processed by: cddbd v1.5.2PL0 Copyright (c) Steve Scherf et al.
# Submitted via: CDex 1.70beta2
#
DISCID=0510f212
DTITLE=Ahmad Jamal Trio - Pavanne For Ahmad
DYEAR=1955
DGENRE=Jazz
TTITLE0=The Surrey With The Fringe On Top
TTITLE1=Ahmad's Blues
TTITLE2=A Gal in Calico
TTITLE3=Aki And Ukthay [Brother And Sister]
TTITLE4=New Rumba
TTITLE5=A Foggy Day
TTITLE6=It Ain't Necessarily So
TTITLE7=I Get A Kick Out Of You
TTITLE8=Darn That Dream
TTITLE9=Love For Sale
TTITLE10=Poinciana [The Song Of The Tree]
TTITLE11=Pavanne
TTITLE12=Black Beauty
TTITLE13=Slaughter On Tenth Avenue
TTITLE14=Old Devil Moon
TTITLE15=Perfidia
TTITLE16=Rica Pulpa
TTITLE17=Something To Remember You By
EXTD=YEAR: 1955
EXTT0=
EXTT1=
EXTT2=
EXTT3=
EXTT4=
EXTT5=
EXTT6=
EXTT7=
EXTT8=
EXTT9=
EXTT10=
EXTT11=
EXTT12=
EXTT13=
EXTT14=
EXTT15=
EXTT16=
EXTT17=
PLAYORDER=
